<svg width="543" height="215" viewBox="0 0 543 215" fill="none" xmlns="http://www.w3.org/2000/svg">
<path d="M159.5 70.0129H180C181.397 56.7738 177.753 52.345 164.5 49.0127C163.096 40.8239 159.913 37.9345 152.5 34.0129C149.164 41.5038 146.787 45.0997 137.5 45.5129C131.412 45.7503 128.639 44.6154 125 40.0129C120.937 41.0375 118.285 41.296 111.5 40.0129C102.091 35.3466 99.6499 31.3121 104.5 19.5129C94.4189 11.9375 87.4957 9.70701 71.5 11.5129C58.7749 16.0184 55.3552 20.6648 52.8747 31.0129C55.6172 32.7112 57.3943 35.4005 59 40.0129C57.5927 50.3832 57.1518 56.4361 38.5 55.0128C27.7061 63.8678 22.29 62.9072 13.5 51.0128C4.8543 57.5562 3.01133 61.7545 4 70.0129H23.5H51.5H71.5C70.7091 62.811 71.8254 59.2402 81 55.0128C81.7249 47.7753 83.4774 44.4185 93.5 42.0129C101.724 42.2693 105.217 44.3676 107.5 55.0128C113.303 58.3384 115.563 61.4051 117 70.0129H130H159.5Z" fill="#EFD67E"/>
<path d="M104.5 19.5129C99.6499 31.3121 102.091 35.3466 111.5 40.0129C118.285 41.296 120.937 41.0375 125 40.0129C128.639 44.6154 131.412 45.7503 137.5 45.5129C146.787 45.0997 149.164 41.5038 152.5 34.0129C152.152 25.9464 150.495 22.5338 143.5 19.5129C147.082 10.6076 146.067 6.41288 134.5 1.51273C122.62 -0.275077 118.565 2.27787 117 14.5127C110.062 14.2878 107.442 15.5109 104.5 19.5129Z" fill="#F9CC2F"/>
<path d="M81 55.0128C71.8254 59.2402 70.7091 62.811 71.5 70.0129H117C115.563 61.4051 113.303 58.3384 107.5 55.0128C105.217 44.3676 101.724 42.2693 93.5 42.0129C83.4774 44.4185 81.7249 47.7753 81 55.0128Z" fill="#F9CC2F"/>
<path d="M13.5 51.0128C22.29 62.9072 27.7061 63.8678 38.5 55.0128C57.1518 56.4361 57.5927 50.3832 59 40.0129C57.3943 35.4005 55.6172 32.7112 52.8747 31.0129C50.8694 29.7711 48.348 29.0592 45 28.5129C40.9727 19.6343 37.1312 18.1717 28.5 19.5129C18.4413 25.4809 17.9853 29.1814 20.5 36.0129C14.3038 40.5579 12.9536 43.9113 13.5 51.0128Z" fill="#F9CC2F"/>
<path d="M137.5 213.513L159.5 70.0129H130L117 213.513H137.5Z" fill="white"/>
<path d="M47 213.513H65.5L51.5 70.0129H23.5L47 213.513Z" fill="white"/>
<path d="M117 106.513H81V119.013H88.5V150.513C86.0088 153.454 84.3766 153.497 81 150.513V146.013H65.5V161.013C73.5619 166.968 76.5 166.013 88.5 168.013C96.0425 167.11 100.199 165.483 107.5 161.013C110.691 155.806 111.111 152.34 111.5 146.013V119.013H117V106.513Z" fill="#E4CB74"/>
<path d="M152.5 213.513L180 70.0129H159.5L137.5 213.513H152.5Z" fill="#DF6767"/>
<path fill-rule="evenodd" clip-rule="evenodd" d="M117 213.513L130 70.0129H117H71.5H51.5L65.5 213.513H117ZM81 106.513H117V119.013H111.5V146.013C111.111 152.34 110.691 155.806 107.5 161.013C100.199 165.483 96.0425 167.11 88.5 168.013C76.5 166.013 73.5619 166.968 65.5 161.013V146.013H81V150.513C84.3766 153.497 86.0088 153.454 88.5 150.513V119.013H81V106.513Z" fill="#DF6767"/>
<path d="M1 70.0129L28.5 213.513H47L23.5 70.0129H4H1Z" fill="#DF6767"/>
<path d="M180 70.0129L152.5 213.513H137.5M180 70.0129H159.5M180 70.0129C181.397 56.7738 177.753 52.345 164.5 49.0127C163.096 40.8239 159.913 37.9345 152.5 34.0129M159.5 70.0129L137.5 213.513M159.5 70.0129H130M159.5 70.0129H117M137.5 213.513H117M117 213.513L130 70.0129M117 213.513H65.5M130 70.0129H117M51.5 70.0129H23.5M51.5 70.0129L65.5 213.513M51.5 70.0129H71.5M65.5 213.513H47M47 213.513H28.5L1 70.0129H4M47 213.513L23.5 70.0129M23.5 70.0129H4M4 70.0129C3.01133 61.7545 4.8543 57.5562 13.5 51.0128M13.5 51.0128C22.29 62.9073 27.7061 63.8678 38.5 55.0128C57.1518 56.4361 57.5927 50.3832 59 40.0129C57.3943 35.4005 55.6172 32.7112 52.8747 31.0129M13.5 51.0128C12.9536 43.9113 14.3038 40.5579 20.5 36.0129C17.9853 29.1814 18.4413 25.4809 28.5 19.5129C37.1312 18.1717 40.9727 19.6343 45 28.5129C48.348 29.0592 50.8694 29.7711 52.8747 31.0129M71.5 70.0129C70.7091 62.811 71.8254 59.2402 81 55.0128C81.7249 47.7753 83.4774 44.4185 93.5 42.0129C101.724 42.2693 105.217 44.3676 107.5 55.0128C113.303 58.3384 115.563 61.4051 117 70.0129M71.5 70.0129H117M52.8747 31.0129C55.3552 20.6648 58.7749 16.0184 71.5 11.5129C87.4957 9.70701 94.4189 11.9375 104.5 19.5129M104.5 19.5129C99.6499 31.3121 102.091 35.3466 111.5 40.0129C118.285 41.296 120.937 41.0375 125 40.0129C128.639 44.6154 131.412 45.7503 137.5 45.5129C146.787 45.0997 149.164 41.5038 152.5 34.0129M104.5 19.5129C107.442 15.5109 110.062 14.2878 117 14.5127C118.565 2.27787 122.62 -0.275077 134.5 1.51273C146.067 6.41288 147.082 10.6076 143.5 19.5129C150.495 22.5338 152.152 25.9464 152.5 34.0129M117 106.513H81V119.013H88.5V150.513C86.0088 153.454 84.3766 153.497 81 150.513V146.013H65.5V161.013C73.5619 166.968 76.5 166.013 88.5 168.013C96.0425 167.11 100.199 165.483 107.5 161.013C110.691 155.806 111.111 152.34 111.5 146.013V119.013H117V106.513Z" stroke="black" stroke-opacity="0.3"/>
<path d="M255.907 70.69V26.68L247.357 24.7C247.357 22.9 247.837 22 248.797 22C250.177 22 253.657 22.12 259.237 22.36L269.227 22C270.127 22 270.577 22.93 270.577 24.79L263.017 26.68V68.26C263.017 79.3 257.437 91 246.277 103.36L243.577 101.47C251.797 90.67 255.907 80.41 255.907 70.69ZM312.465 45.04L306.435 43.78C306.435 41.92 306.975 40.99 308.055 40.99C308.955 40.99 311.445 41.08 315.525 41.26L322.815 40.99C323.835 40.99 324.345 41.89 324.345 43.69L318.585 45.04V80.95L324.345 82.21C324.345 84.07 323.835 85 322.815 85L315.525 84.46L308.055 85C306.975 85 306.435 84.07 306.435 82.21L312.465 80.95L311.745 64.12L289.785 65.02L289.155 80.95L295.185 82.21C295.185 84.07 294.675 85 293.655 85L286.365 84.46L278.895 85C277.815 85 277.275 84.07 277.275 82.21L283.035 80.95V45.04L277.275 43.78C277.275 41.92 277.815 40.99 278.895 40.99C279.795 40.99 282.285 41.08 286.365 41.26L293.655 40.99C294.675 40.99 295.185 41.89 295.185 43.69L289.155 45.04L289.875 60.34H311.745L312.465 45.04ZM355.198 40.27C361.738 40.27 367.108 42.16 371.308 45.94C375.508 49.72 377.608 55.3 377.608 62.68C377.608 70.06 375.478 75.76 371.218 79.78C367.018 83.74 361.528 85.72 354.748 85.72C347.968 85.72 342.538 83.77 338.458 79.87C334.438 75.91 332.428 70.3 332.428 63.04C332.428 55.72 334.588 50.11 338.908 46.21C343.228 42.25 348.658 40.27 355.198 40.27ZM339.448 62.86C339.448 68.98 340.888 73.66 343.768 76.9C346.648 80.14 350.398 81.76 355.018 81.76C359.638 81.76 363.388 80.14 366.268 76.9C369.148 73.66 370.588 69.04 370.588 63.04C370.588 57.04 369.148 52.48 366.268 49.36C363.388 46.18 359.638 44.59 355.018 44.59C352.018 44.59 348.958 45.04 345.838 45.94C343.918 47.38 342.358 49.63 341.158 52.69C340.018 55.69 339.448 59.08 339.448 62.86ZM406.702 40.27C413.242 40.27 418.612 42.16 422.812 45.94C427.012 49.72 429.112 55.3 429.112 62.68C429.112 70.06 426.982 75.76 422.722 79.78C418.522 83.74 413.032 85.72 406.252 85.72C399.472 85.72 394.042 83.77 389.962 79.87C385.942 75.91 383.932 70.3 383.932 63.04C383.932 55.72 386.092 50.11 390.412 46.21C394.732 42.25 400.162 40.27 406.702 40.27ZM390.952 62.86C390.952 68.98 392.392 73.66 395.272 76.9C398.152 80.14 401.902 81.76 406.522 81.76C411.142 81.76 414.892 80.14 417.772 76.9C420.652 73.66 422.092 69.04 422.092 63.04C422.092 57.04 420.652 52.48 417.772 49.36C414.892 46.18 411.142 44.59 406.522 44.59C403.522 44.59 400.462 45.04 397.342 45.94C395.422 47.38 393.862 49.63 392.662 52.69C391.522 55.69 390.952 59.08 390.952 62.86ZM468.466 40.99L476.926 41.26L483.046 40.99C484.066 41.11 484.576 42.04 484.576 43.78L479.446 45.13L479.176 85H475.126L447.226 50.35C447.286 53.71 447.406 58.81 447.586 65.65C447.766 72.43 447.886 77.53 447.946 80.95C449.446 81.31 451.816 81.73 455.056 82.21C455.056 84.07 454.516 85 453.436 85L445.156 84.46L438.406 85C437.326 85 436.786 84.07 436.786 82.21L442.726 80.86L442.456 45.13L436.786 43.87C436.786 41.95 437.326 40.99 438.406 40.99C439.246 40.99 442.396 41.08 447.856 41.26L474.586 75.1L474.046 45.13L466.936 43.87C466.936 41.95 467.446 40.99 468.466 40.99ZM265.83 177.7C265.83 182.92 263.85 186.97 259.89 189.85C255.93 192.67 250.86 194.08 244.68 194.08C238.56 194.08 232.14 192.64 225.42 189.76C226.56 179.86 227.25 174.91 227.49 174.91C230.07 174.91 231.36 175.27 231.36 175.99V185.98C235.26 188.5 239.61 189.76 244.41 189.76C249.27 189.76 252.78 188.74 254.94 186.7C257.1 184.66 258.18 182.05 258.18 178.87C258.18 174.73 256.05 171.43 251.79 168.97L235.86 159.88C232.86 158.2 230.58 156.1 229.02 153.58C227.46 151 226.68 148.3 226.68 145.48C226.68 140.98 228.51 137.11 232.17 133.87C235.89 130.57 240.93 128.92 247.29 128.92C251.91 128.92 257.1 130 262.86 132.16L260.52 146.02C258 146.02 256.74 145.6 256.74 144.76V135.67C253.5 134.17 250.17 133.42 246.75 133.42C240.63 133.42 236.19 135.67 233.43 140.17C233.13 141.19 232.98 142.39 232.98 143.77C232.98 147.91 235.23 151.27 239.73 153.85L255.21 162.67C258.63 164.65 261.24 166.99 263.04 169.69C264.9 172.39 265.83 175.06 265.83 177.7ZM304.234 153.13L293.974 153.31V188.68L301.264 190.21C301.264 192.07 300.754 193 299.734 193L291.004 192.46L282.094 193C280.954 193 280.384 192.07 280.384 190.21L287.674 188.68V153.31L277.504 153.13L276.604 159.43C276.604 160.33 275.404 160.78 273.004 160.78L272.104 150.16C272.224 149.38 273.124 148.99 274.804 148.99L291.004 149.35L306.934 148.99C308.614 148.99 309.514 149.38 309.634 150.16L308.734 160.78C306.334 160.78 305.134 160.33 305.134 159.43L304.234 153.13ZM328.897 174.46L328.267 188.95L335.107 190.21C335.107 192.07 334.597 193 333.577 193L325.477 192.46L318.007 193C316.927 193 316.387 192.07 316.387 190.21L322.147 188.95V153.04L316.387 151.78C316.387 149.92 316.927 148.99 318.007 148.99C318.907 148.99 321.397 149.08 325.477 149.26L334.657 148.99C339.037 148.99 342.517 150.16 345.097 152.5C347.677 154.84 348.967 157.75 348.967 161.23C348.967 163.39 348.247 165.49 346.807 167.53C345.367 169.57 343.267 171.13 340.507 172.21L353.737 193.54L349.147 194.89L334.207 173.65L328.897 174.46ZM329.077 170.14L332.317 170.23C335.677 170.11 338.287 169.15 340.147 167.35C342.067 165.55 343.027 163.51 343.027 161.23C343.027 158.89 342.217 156.88 340.597 155.2C338.977 153.52 336.637 152.65 333.577 152.59L328.267 153.04L329.077 170.14ZM391.74 193L369.51 192.46L362.04 193C360.96 193 360.42 192.07 360.42 190.21L366.18 188.95V153.04L360.42 151.78C360.42 149.92 360.96 148.99 362.04 148.99C362.94 148.99 365.43 149.08 369.51 149.26L391.29 148.99C392.49 148.99 393.24 149.11 393.54 149.35C393.84 149.53 393.99 149.83 393.99 150.25L392.37 159.79C389.91 159.79 388.68 159.34 388.68 158.44V153.22L372.21 153.4L373.02 168.34H389.67V172.03L372.93 173.02L372.21 188.59H389.49L391.02 183.46C391.2 182.8 391.53 182.38 392.01 182.2C392.55 182.02 393.48 181.93 394.8 181.93L394.26 191.92C394.14 192.64 393.3 193 391.74 193ZM410.048 188.95L416.078 190.21C416.078 192.07 415.538 193 414.458 193C413.978 193 411.368 192.91 406.628 192.73L400.418 193C399.398 193 398.888 192.1 398.888 190.3L404.108 188.95L419.318 148.99H425.168L440.558 188.86L445.778 190.3C445.778 192.1 445.238 193 444.158 193C443.138 193 440.738 192.91 436.958 192.73L429.128 193C428.048 193 427.508 192.07 427.508 190.21L433.628 188.95L430.028 178.96L413.288 179.86L410.048 188.95ZM421.658 155.92L414.818 175.18H428.588L421.658 155.92ZM454.011 148.99L465.441 149.53L478.761 179.86L493.521 149.53L504.231 148.99C504.711 148.99 505.071 149.32 505.311 149.98C505.611 150.58 505.761 151.21 505.761 151.87L500.091 153.22L502.251 188.95C502.731 189.07 503.691 189.28 505.131 189.58C506.571 189.82 507.531 190.03 508.011 190.21C508.011 192.07 507.501 193 506.481 193L498.831 192.46L491.361 193C490.281 193 489.741 192.07 489.741 190.21L496.041 188.86L494.691 157.99L479.031 189.94H476.961L462.651 158.62L461.481 188.95C461.781 189.01 463.851 189.43 467.691 190.21C467.691 192.07 467.121 193 465.981 193L458.601 192.46L451.851 193C450.831 193 450.321 192.07 450.321 190.21L456.081 188.95C456.321 184.93 456.651 178.96 457.071 171.04C457.551 163.12 457.911 157.15 458.151 153.13L452.481 151.87C452.481 149.95 452.991 148.99 454.011 148.99Z" fill="#C5B4B4"/>
</svg>
